<?xml version="1.0" encoding="UTF-8" standalone="no"?>
<svg
   xmlns:dc="http://purl.org/dc/elements/1.1/"
   xmlns:cc="http://creativecommons.org/ns#"
   xmlns:rdf="http://www.w3.org/1999/02/22-rdf-syntax-ns#"
   xmlns:svg="http://www.w3.org/2000/svg"
   xmlns="http://www.w3.org/2000/svg"
   xmlns:sodipodi="http://sodipodi.sourceforge.net/DTD/sodipodi-0.dtd"
   xmlns:inkscape="http://www.inkscape.org/namespaces/inkscape"
   width="125.21325mm"
   height="125.19579mm"
   viewBox="0 0 125.21325 125.19579"
   version="1.1"
   id="svg8"
   inkscape:version="1.0.2-2 (e86c870879, 2021-01-15)"
   sodipodi:docname="skill.svg">
  <defs
     id="defs2" />
  <sodipodi:namedview
     id="base"
     pagecolor="#ffffff"
     bordercolor="#666666"
     borderopacity="1.0"
     inkscape:pageopacity="0.0"
     inkscape:pageshadow="2"
     inkscape:zoom="1.4"
     inkscape:cx="189.30416"
     inkscape:cy="266.6926"
     inkscape:document-units="mm"
     inkscape:current-layer="layer1"
     inkscape:document-rotation="0"
     showgrid="false"
     fit-margin-top="0"
     fit-margin-left="0"
     fit-margin-right="0"
     fit-margin-bottom="0"
     inkscape:window-width="2246"
     inkscape:window-height="1360"
     inkscape:window-x="1606"
     inkscape:window-y="0"
     inkscape:window-maximized="0" />
  <metadata
     id="metadata5">
    <rdf:RDF>
      <cc:Work
         rdf:about="">
        <dc:format>image/svg+xml</dc:format>
        <dc:type
           rdf:resource="http://purl.org/dc/dcmitype/StillImage" />
        <dc:title />
      </cc:Work>
    </rdf:RDF>
  </metadata>
  <g
     inkscape:label="Lager 1"
     inkscape:groupmode="layer"
     id="layer1"
     transform="translate(-31.776823,-28.074425)">
    <path
       style="fill:#cdcdcf;fill-opacity:1;stroke-width:0.0515815"
       d="m 89.377478,118.08162 c -0.389229,-0.0984 -0.739768,-0.42597 -0.832143,-0.77772 -0.02861,-0.10887 -0.247167,-1.55779 -0.485719,-3.21982 -0.238558,-1.66203 -0.450309,-3.05424 -0.470561,-3.09381 -0.02025,-0.0396 -0.27544,-0.15984 -0.567079,-0.26728 -0.732064,-0.26968 -1.150671,-0.44642 -1.768412,-0.74659 -0.291156,-0.14148 -0.557157,-0.24618 -0.591112,-0.23265 -0.03396,0.0135 -1.100637,0.84339 -2.370402,1.84414 -1.269765,1.00075 -2.387055,1.85353 -2.482862,1.89509 -0.222227,0.0964 -0.687695,0.0972 -0.908135,0.002 -0.397803,-0.17253 -4.276182,-4.06616 -5.187341,-5.20773 -0.511957,-0.64141 -0.665534,-0.90485 -0.724785,-1.24327 -0.09715,-0.55488 0.0036,-0.73045 1.71116,-2.98734 0.557728,-0.73707 1.215503,-1.61894 1.461715,-1.9597 l 0.447664,-0.61986 -0.333919,-0.72057 C 75.880556,99.89417 75.675875,99.373862 75.454564,98.659541 L 75.291743,98.134024 74.031745,97.94246 c -4.389049,-0.667283 -4.812208,-0.73756 -4.981092,-0.82724 -0.217215,-0.115343 -0.484158,-0.466695 -0.554591,-0.72995 -0.07795,-0.291353 -0.07205,-7.92675 0.0063,-8.163021 0.09874,-0.297755 0.301156,-0.572087 0.518995,-0.70341 0.161054,-0.09709 0.434822,-0.159693 1.24434,-0.28453 2.590844,-0.399536 4.795489,-0.745146 4.91591,-0.770637 0.117459,-0.02484 0.157381,-0.102599 0.370684,-0.72176 0.131478,-0.381643 0.417506,-1.076602 0.635616,-1.544345 l 0.396567,-0.850448 -0.157416,-0.226914 c -0.51158,-0.737461 -1.475171,-2.043104 -2.158745,-2.92506 -1.195563,-1.542523 -1.361455,-1.777351 -1.422871,-2.0141 -0.06528,-0.251668 -0.03039,-0.507243 0.107564,-0.787955 0.255579,-0.520042 1.537014,-2.005913 3.145185,-3.646956 1.489084,-1.519521 2.29512,-2.215586 2.890587,-2.496214 0.54285,-0.255827 0.639397,-0.198687 3.326195,1.968504 l 2.303537,1.858054 0.337244,-0.176002 c 0.50738,-0.264794 1.683685,-0.776556 2.159796,-0.939638 0.231729,-0.07937 0.430376,-0.171368 0.441439,-0.204431 0.01105,-0.03306 0.101235,-0.722299 0.200387,-1.531634 0.340707,-2.781081 0.668108,-4.613702 0.901054,-5.043655 0.127253,-0.234871 0.36514,-0.421547 0.637141,-0.499977 0.115068,-0.03318 1.577516,-0.05292 3.934171,-0.0531 4.059805,-3.18e-4 4.027736,-0.0024 4.390238,0.28462 0.09778,0.07742 0.213974,0.21995 0.258223,0.316743 0.04619,0.101052 0.27531,1.515306 0.538094,3.32144 0.251705,1.729998 0.465428,3.169101 0.474942,3.198006 0.0095,0.02891 0.354324,0.178717 0.766258,0.332915 0.411923,0.154198 1.066783,0.430827 1.455233,0.61473 l 0.70628,0.334369 2.38585,-1.872317 c 1.31221,-1.029775 2.46559,-1.902514 2.56305,-1.939419 0.42904,-0.162469 0.88993,-0.0366 1.31203,0.358303 1.72066,1.609842 4.07767,4.086855 4.89167,5.140735 0.46216,0.598354 0.52642,0.717659 0.564,1.047038 0.0612,0.536523 -0.043,0.702991 -2.38884,3.81423 -0.54483,0.722621 -1.05028,1.40324 -1.12322,1.512483 l -0.1326,0.198626 0.33343,0.721075 c 0.4189,0.905957 0.45166,0.987234 0.74588,1.850988 l 0.24168,0.709482 2.97992,0.476111 c 1.63896,0.261857 3.04217,0.492783 3.11823,0.513164 0.21191,0.05678 0.49759,0.347417 0.62864,0.639524 l 0.11804,0.263154 v 3.967849 3.967846 l -0.11839,0.262775 c -0.14026,0.311287 -0.39349,0.582127 -0.6105,0.652951 -0.0858,0.02801 -1.45467,0.253602 -3.04184,0.501297 -1.58716,0.247691 -2.93499,0.461718 -2.99518,0.475609 -0.0818,0.01888 -0.14419,0.121402 -0.24731,0.40645 -0.27887,0.770892 -0.5964,1.551742 -0.85636,2.105962 l -0.2667,0.56859 0.74467,1.03432 c 0.40956,0.56887 1.21575,1.64545 1.79151,2.3924 0.57576,0.74694 1.08174,1.42813 1.12439,1.51376 0.13542,0.27182 0.14778,0.628 0.0313,0.90137 -0.35384,0.83037 -3.85071,4.62138 -5.31481,5.76186 -0.7916,0.61665 -1.18287,0.72094 -1.70075,0.45332 -0.14255,-0.0737 -1.19327,-0.89348 -2.33491,-1.8218 -1.14164,-0.92831 -2.14779,-1.7456 -2.2359,-1.81617 l -0.1602,-0.12834 -0.46191,0.24082 c -0.54909,0.28627 -1.486806,0.6908 -2.059502,0.88847 l -0.411695,0.1421 -0.06015,0.51015 c -0.384162,3.25784 -0.759021,5.52999 -0.997171,6.04418 -0.154562,0.33371 -0.389189,0.51217 -0.772644,0.58766 -0.312438,0.0615 -7.483054,0.0656 -7.725213,0.004 z m 5.493047,-3.73617 c 0,-0.0296 0.06771,-0.54405 0.150449,-1.14306 0.08275,-0.59899 0.253307,-1.97444 0.379026,-3.05654 0.125717,-1.0821 0.245973,-1.98414 0.267228,-2.00452 0.02124,-0.0204 0.63094,-0.23212 1.354853,-0.47051 1.731338,-0.57013 2.16418,-0.75595 3.847769,-1.65188 l 1.41756,-0.75437 2.39525,1.94211 2.39523,1.94211 0.288,-0.26143 c 0.26146,-0.23735 0.67123,-0.66532 1.64332,-1.7163 l 0.34225,-0.37001 -0.78786,-1.04895 c -0.69434,-0.92442 -1.79908,-2.49795 -2.60565,-3.71135 l -0.26761,-0.40256 0.60925,-1.17407 c 0.86808,-1.672886 1.03778,-2.084351 1.88515,-4.571059 l 0.31587,-0.926944 0.69043,-0.110313 c 0.37974,-0.06067 1.67008,-0.264164 2.86741,-0.452207 1.19733,-0.188043 2.22823,-0.354351 2.29088,-0.36957 l 0.11391,-0.02769 v -1.545169 -1.545176 l -0.13921,-0.02957 c -0.11064,-0.02349 -3.71351,-0.598163 -5.51616,-0.879855 l -0.36482,-0.057 -0.12547,-0.401246 c -0.069,-0.220687 -0.27763,-0.897616 -0.46363,-1.504285 -0.42011,-1.370298 -0.65964,-1.952496 -1.51598,-3.684794 l -0.67813,-1.371805 0.83101,-1.203354 c 0.45705,-0.661847 1.26415,-1.782766 1.79354,-2.490935 l 0.96253,-1.287581 -1.09984,-1.143055 c -0.60492,-0.62868 -1.11846,-1.143054 -1.1412,-1.143054 -0.0228,0 -1.0937,0.823323 -2.37991,1.829606 -1.28621,1.006285 -2.36544,1.846207 -2.39829,1.866494 -0.0329,0.02031 -0.58964,-0.245203 -1.24037,-0.591594 -1.570654,-0.8361 -1.772028,-0.92365 -3.684839,-1.60197 L 95.658922,76.639157 95.2122,73.564733 c -0.245699,-1.690934 -0.456545,-3.103986 -0.468548,-3.140117 -0.0168,-0.05059 -0.370707,-0.0657 -1.539246,-0.0657 -0.834578,0 -1.529062,0.01955 -1.543294,0.04346 -0.04102,0.06889 -0.366901,2.551621 -0.58683,4.470696 -0.110626,0.965284 -0.207321,1.76051 -0.214877,1.767167 -0.0076,0.0067 -0.492168,0.17001 -1.076912,0.363001 -2.10241,0.693892 -2.72678,0.967508 -4.674889,2.048658 -0.454976,0.252499 -0.854182,0.448349 -0.887131,0.435228 -0.05311,-0.02115 -4.141982,-3.292985 -4.587613,-3.670912 -0.09684,-0.08213 -0.200949,-0.149323 -0.23135,-0.149323 -0.06469,0 -2.200011,2.226353 -2.199596,2.293363 1.51e-4,0.02493 0.127916,0.210847 0.283909,0.41318 0.939978,1.219207 3.31034,4.622418 3.31034,4.752771 0,0.0325 -0.289318,0.608228 -0.642927,1.279403 -0.940367,1.784874 -1.095528,2.184755 -1.885421,4.859226 -0.131366,0.444783 -0.178382,0.542567 -0.270836,0.563302 -0.06153,0.01382 -1.35351,0.215981 -2.871061,0.449287 -1.51755,0.233311 -2.833226,0.437709 -2.923722,0.454219 l -0.164537,0.03003 v 1.538804 1.538805 l 0.113911,0.02744 c 0.06265,0.0151 1.389715,0.220147 2.949032,0.455663 1.55932,0.235518 2.881093,0.447385 2.937274,0.470824 0.08295,0.03459 0.167659,0.283354 0.450759,1.32374 0.540079,1.984779 0.698478,2.387876 1.701739,4.330662 0.361031,0.69912 0.656418,1.28629 0.656418,1.30482 0,0.0695 -1.769117,2.57732 -2.669882,3.78467 l -0.935869,1.25441 0.448596,0.47057 c 0.246731,0.25882 0.758173,0.77538 1.136544,1.14793 l 0.68794,0.67737 0.906817,-0.71826 c 0.498745,-0.39505 1.577318,-1.24368 2.396823,-1.88585 l 1.490015,-1.1676 1.446364,0.75389 c 1.656157,0.86322 1.916572,0.97446 3.748954,1.60143 l 1.340667,0.45872 0.463015,3.1217 c 0.254657,1.71693 0.465821,3.1276 0.469252,3.13483 0.0036,0.008 0.701097,0.0132 1.550369,0.0132 1.022435,0 1.544128,-0.0182 1.544128,-0.0539 z"
       id="path24"
       sodipodi:nodetypes="ccssssssscsscscsscsssssscsscssssssscsscsssssssssscssssssscsscssscccsssssscssscsssscsscssscccsscsscccsscsscsscsssccccscssscsscssscsscsssssssssssssssscssccccscsssscsscsscsscscscc" />
  </g>
</svg>
